<svg id="图层_1" data-name="图层 1" xmlns="http://www.w3.org/2000/svg" xmlns:xlink="http://www.w3.org/1999/xlink" viewBox="0 0 307.26 314.41"><defs><style>.cls-1,.cls-15,.cls-20,.cls-4,.cls-6,.cls-7,.cls-8,.cls-9{fill:none;}.cls-2{clip-path:url(#clip-path);}.cls-3{font-size:14px;font-family:Arial-BoldMT, Arial;}.cls-13,.cls-17,.cls-3{fill:#231f20;}.cls-12,.cls-3{font-weight:700;}.cls-20,.cls-4,.cls-6,.cls-7{stroke:#4e4e4e;}.cls-20,.cls-4,.cls-8,.cls-9{stroke-linejoin:round;}.cls-4,.cls-6,.cls-8,.cls-9{stroke-width:1.07px;}.cls-5{fill:#f8d83a;}.cls-15,.cls-6,.cls-7{stroke-miterlimit:10;}.cls-7{stroke-width:2.13px;}.cls-8{stroke:#010101;}.cls-9{stroke:#343333;}.cls-10,.cls-12{font-size:8.8px;}.cls-10,.cls-12,.cls-19{fill:#4e4e4e;}.cls-10,.cls-11,.cls-13{font-family:ArialMT, Arial;}.cls-11{font-size:11px;fill:#010101;}.cls-12{font-family:Arial-BoldItalicMT, Arial;font-style:italic;}.cls-13{font-size:7px;}.cls-14{fill:#908a8a;}.cls-15{stroke:#898686;stroke-width:0.5px;}.cls-16{fill:#898686;}.cls-17{font-size:8px;font-family:MyriadPro-Regular, Myriad Pro;}.cls-18{clip-path:url(#clip-path-2);}.cls-20{stroke-linecap:round;stroke-width:0.71px;}.cls-21{clip-path:url(#clip-path-3);}</style><clipPath id="clip-path" transform="translate(-2.44 -0.23)"><rect class="cls-1" width="311.25" height="314.92"/></clipPath><clipPath id="clip-path-2" transform="translate(-2.44 -0.23)"><rect class="cls-1" x="80.77" y="115.91" width="230.48" height="79.07"/></clipPath><clipPath id="clip-path-3" transform="translate(-2.44 -0.23)"><rect class="cls-1" x="80.63" y="221.48" width="215.87" height="79.07"/></clipPath></defs><g class="cls-2"><text class="cls-3" transform="translate(3.3 12.01)">a</text></g><text class="cls-3" transform="translate(2.54 117.33)">b</text><text class="cls-3" transform="translate(3.31 222.65)">c</text><line class="cls-4" x1="97.96" y1="77.71" x2="99.29" y2="77.71"/><line class="cls-4" x1="95.76" y1="77.71" x2="95.69" y2="77.71"/><rect class="cls-5" x="95.76" y="72.01" width="2.2" height="11.4"/><rect class="cls-6" x="95.76" y="72.01" width="2.2" height="11.4"/><line class="cls-7" x1="96.65" y1="83.41" x2="96.65" y2="72.01"/><line class="cls-4" x1="112.35" y1="62.51" x2="112.45" y2="62.51"/><line class="cls-4" x1="92.05" y1="62.51" x2="91.08" y2="62.51"/><rect class="cls-5" x="92.05" y="56.8" width="20.3" height="11.4"/><rect class="cls-6" x="92.05" y="56.8" width="20.3" height="11.4"/><line class="cls-7" x1="102.35" y1="68.21" x2="102.35" y2="56.81"/><line class="cls-4" x1="279.42" y1="47.3" x2="284.82" y2="47.3"/><line class="cls-4" x1="256.51" y1="47.3" x2="246.55" y2="47.3"/><rect class="cls-5" x="256.51" y="41.6" width="22.91" height="11.41"/><rect class="cls-6" x="256.51" y="41.6" width="22.91" height="11.41"/><line class="cls-7" x1="268.72" y1="53" x2="268.72" y2="41.6"/><line class="cls-4" x1="165.8" y1="32.09" x2="167.33" y2="32.09"/><line class="cls-4" x1="136.08" y1="32.09" x2="136.01" y2="32.09"/><rect class="cls-5" x="136.08" y="26.39" width="29.72" height="11.41"/><rect class="cls-6" x="136.08" y="26.39" width="29.72" height="11.41"/><line class="cls-7" x1="150.7" y1="37.8" x2="150.7" y2="26.39"/><line class="cls-4" x1="106.49" y1="16.89" x2="125.07" y2="16.89"/><line class="cls-4" x1="90.47" y1="16.89" x2="88.57" y2="16.89"/><rect class="cls-5" x="90.47" y="11.19" width="16.03" height="11.4"/><rect class="cls-6" x="90.47" y="11.19" width="16.03" height="11.4"/><line class="cls-7" x1="95.7" y1="22.59" x2="95.7" y2="11.19"/><line class="cls-8" x1="78.76" y1="86.84" x2="78.76" y2="7.77"/><line class="cls-9" x1="76.02" y1="77.71" x2="78.76" y2="77.71"/><line class="cls-9" x1="76.02" y1="62.51" x2="78.76" y2="62.51"/><line class="cls-9" x1="76.02" y1="47.3" x2="78.76" y2="47.3"/><line class="cls-9" x1="76.02" y1="32.09" x2="78.76" y2="32.09"/><line class="cls-9" x1="76.02" y1="16.89" x2="78.76" y2="16.89"/><line class="cls-8" x1="78.76" y1="86.84" x2="304.61" y2="86.84"/><line class="cls-9" x1="111.92" y1="89.57" x2="111.92" y2="86.84"/><line class="cls-9" x1="151.65" y1="89.57" x2="151.65" y2="86.84"/><line class="cls-9" x1="191.38" y1="89.57" x2="191.38" y2="86.84"/><line class="cls-9" x1="231.11" y1="89.57" x2="231.11" y2="86.84"/><line class="cls-9" x1="270.84" y1="89.57" x2="270.84" y2="86.84"/><text class="cls-10" transform="translate(109.48 98.07)">5</text><text class="cls-10" transform="translate(146.75 98.07)">1</text><text class="cls-10" transform="translate(151.64 98.07)">0</text><text class="cls-10" transform="translate(186.46 98.07)">15</text><text class="cls-10" transform="translate(226.21 98.07)">2</text><text class="cls-10" transform="translate(231.1 98.07)">0</text><text class="cls-10" transform="translate(265.93 98.07)">25</text><text class="cls-11" transform="translate(248.03 79.63)">time (hours)</text><text class="cls-12" transform="translate(0 80.84)">bsgenova</text><text class="cls-10" transform="translate(41.08 80.84)">-8 cores</text><text class="cls-12" transform="translate(0 65.4)">bsgenova</text><text class="cls-10" transform="translate(41.08 65.4)">-4 cores</text><text class="cls-10" transform="translate(1.45 50.18)">cgmaptools-bayes</text><text class="cls-10" transform="translate(0.97 34.74)">cgmaptools-binom</text><text class="cls-10" transform="translate(34.59 19.3)">BS-Snper</text><text class="cls-13" transform="translate(197.78 17.88)">median of 8 WGBS samples</text><line class="cls-14" x1="222.92" y1="22.2" x2="230.4" y2="39.12"/><line class="cls-15" x1="222.92" y1="22.2" x2="229.2" y2="36.39"/><polygon class="cls-16" points="226.94 35.85 228.95 35.83 230.32 34.36 230.4 39.12 226.94 35.85"/><line class="cls-14" x1="215.68" y1="21.05" x2="191.31" y2="31.39"/><line class="cls-15" x1="215.68" y1="21.05" x2="194.06" y2="30.22"/><polygon class="cls-16" points="194.63 27.97 194.63 29.98 196.07 31.38 191.31 31.39 194.63 27.97"/><path class="cls-14" d="M157.53,16.82l36.88-.44Z" transform="translate(-2.44 -0.23)"/><line class="cls-15" x1="191.97" y1="16.15" x2="158.08" y2="16.56"/><polygon class="cls-16" points="159.46 14.69 158.69 16.55 159.5 18.39 155.09 16.59 159.46 14.69"/><text class="cls-17" transform="translate(133.16 19.75)">2.96</text><text class="cls-17" transform="translate(224.61 50.01)">24.73</text><text class="cls-17" transform="translate(117.7 65.14)">3.79</text><text class="cls-17" transform="translate(106.21 80.27)">3.08</text><text class="cls-17" transform="translate(173.82 34.88)">9.88</text><line class="cls-4" x1="90.15" y1="185.63" x2="90.37" y2="185.63"/><line class="cls-4" x1="89.43" y1="185.63" x2="88.9" y2="185.63"/><rect class="cls-5" x="89.43" y="179.93" width="0.72" height="11.4"/><rect class="cls-6" x="89.43" y="179.93" width="0.72" height="11.4"/><line class="cls-7" x1="89.84" y1="191.33" x2="89.84" y2="179.93"/><line class="cls-4" x1="89.55" y1="170.43" x2="89.63" y2="170.43"/><line class="cls-4" x1="89.32" y1="170.43" x2="89.03" y2="170.43"/><rect class="cls-5" x="89.32" y="164.72" width="0.23" height="11.4"/><rect class="cls-6" x="89.32" y="164.72" width="0.23" height="11.4"/><line class="cls-7" x1="89.47" y1="176.13" x2="89.47" y2="164.72"/><g class="cls-18"><path class="cls-19" d="M118.58,155.45a1.43,1.43,0,0,1-2.85,0,1.43,1.43,0,0,1,2.85,0" transform="translate(-2.44 -0.23)"/><path class="cls-20" d="M118.58,155.45a1.43,1.43,0,0,1-2.85,0,1.43,1.43,0,0,1,2.85,0" transform="translate(-2.44 -0.23)"/><line class="cls-4" x1="168.68" y1="155.22" x2="172.47" y2="155.22"/><rect class="cls-5" x="148.91" y="149.52" width="19.77" height="11.41"/><rect class="cls-6" x="148.91" y="149.52" width="19.77" height="11.41"/><line class="cls-7" x1="163.86" y1="160.92" x2="163.86" y2="149.52"/><path class="cls-19" d="M177.75,140.24a1.42,1.42,0,1,1-2.84,0,1.42,1.42,0,0,1,2.84,0" transform="translate(-2.44 -0.23)"/><path class="cls-20" d="M177.75,140.24a1.42,1.42,0,1,1-2.84,0,1.42,1.42,0,0,1,2.84,0" transform="translate(-2.44 -0.23)"/><line class="cls-4" x1="187.43" y1="140.01" x2="188.08" y2="140.01"/><rect class="cls-5" x="182.59" y="134.31" width="4.85" height="11.41"/><rect class="cls-6" x="182.59" y="134.31" width="4.85" height="11.41"/><line class="cls-7" x1="186.35" y1="145.72" x2="186.35" y2="134.31"/><path class="cls-19" d="M178.67,125a1.42,1.42,0,1,1-2.84,0,1.42,1.42,0,0,1,2.84,0" transform="translate(-2.44 -0.23)"/><path class="cls-20" d="M178.67,125a1.42,1.42,0,1,1-2.84,0,1.42,1.42,0,0,1,2.84,0" transform="translate(-2.44 -0.23)"/><line class="cls-4" x1="290.26" y1="124.81" x2="300.28" y2="124.81"/><rect class="cls-5" x="249.23" y="119.1" width="41.02" height="11.4"/><rect class="cls-6" x="249.23" y="119.1" width="41.02" height="11.4"/><line class="cls-7" x1="280.48" y1="130.51" x2="280.48" y2="119.11"/></g><line class="cls-8" x1="78.33" y1="194.75" x2="78.33" y2="115.68"/><line class="cls-9" x1="75.6" y1="185.63" x2="78.33" y2="185.63"/><line class="cls-9" x1="75.6" y1="170.43" x2="78.33" y2="170.43"/><line class="cls-9" x1="75.6" y1="155.22" x2="78.33" y2="155.22"/><line class="cls-9" x1="75.6" y1="140.01" x2="78.33" y2="140.01"/><line class="cls-9" x1="75.6" y1="124.81" x2="78.33" y2="124.81"/><line class="cls-8" x1="78.33" y1="194.75" x2="305.28" y2="194.75"/><line class="cls-9" x1="88.61" y1="197.49" x2="88.61" y2="194.75"/><line class="cls-9" x1="148.93" y1="197.49" x2="148.93" y2="194.75"/><line class="cls-9" x1="209.25" y1="197.49" x2="209.25" y2="194.75"/><line class="cls-9" x1="269.57" y1="197.49" x2="269.57" y2="194.75"/><text class="cls-10" transform="translate(86.16 205.98)">0</text><text class="cls-10" transform="translate(144.02 205.98)">10</text><text class="cls-10" transform="translate(204.35 205.98)">2</text><text class="cls-10" transform="translate(209.25 205.98)">0</text><text class="cls-10" transform="translate(264.66 205.98)">30</text><text class="cls-11" transform="translate(241.92 187.55)">disk (Gbytes)</text><text class="cls-12" transform="translate(31.79 188.78)">bsgenova</text><text class="cls-10" transform="translate(27.86 173.38)">cgmaptools</text><text class="cls-10" transform="translate(34.59 157.75)">BS-Snper</text><text class="cls-10" transform="translate(17.6 142.12)">ATCGmap file</text><text class="cls-10" transform="translate(42.05 126.49)">bam file</text><text class="cls-17" transform="translate(222.65 127.16)">31.81</text><text class="cls-17" transform="translate(194.82 142.29)">16.20</text><text class="cls-17" transform="translate(178.47 157.42)">12.48</text><text class="cls-17" transform="translate(96.51 172.55)">0.14</text><text class="cls-17" transform="translate(96.51 187.67)">0.20</text><g class="cls-21"><path class="cls-19" d="M106.14,291.43a2,2,0,1,1-3.91,0,2,2,0,1,1,3.91,0" transform="translate(-2.44 -0.23)"/><path class="cls-20" d="M106.14,291.43a2,2,0,1,1-3.91,0,2,2,0,1,1,3.91,0" transform="translate(-2.44 -0.23)"/><line class="cls-4" x1="102.27" y1="291.2" x2="102.35" y2="291.2"/><rect class="cls-5" x="102.07" y="285.5" width="0.2" height="11.4"/><rect class="cls-6" x="102.07" y="285.5" width="0.2" height="11.4"/><line class="cls-7" x1="102.21" y1="296.9" x2="102.21" y2="285.5"/><path class="cls-19" d="M99.49,276.23a2,2,0,0,1-3.91,0,2,2,0,1,1,3.91,0" transform="translate(-2.44 -0.23)"/><path class="cls-20" d="M99.49,276.23a2,2,0,0,1-3.91,0,2,2,0,1,1,3.91,0" transform="translate(-2.44 -0.23)"/><line class="cls-4" x1="95.37" y1="276" x2="95.37" y2="276"/><rect class="cls-5" x="95.29" y="270.29" width="0.08" height="11.4"/><rect class="cls-6" x="95.29" y="270.29" width="0.08" height="11.4"/><line class="cls-7" x1="95.36" y1="281.7" x2="95.36" y2="270.29"/><path class="cls-19" d="M92.4,261a2,2,0,0,1-3.91,0,2,2,0,1,1,3.91,0" transform="translate(-2.44 -0.23)"/><path class="cls-20" d="M92.4,261a2,2,0,0,1-3.91,0,2,2,0,1,1,3.91,0" transform="translate(-2.44 -0.23)"/><rect class="cls-5" x="88" y="255.09" height="11.41"/><rect class="cls-6" x="88" y="255.09" height="11.41"/><line class="cls-7" x1="88.01" y1="266.49" x2="88.01" y2="255.09"/><path class="cls-6" d="M90.44,251.51v0Z" transform="translate(-2.44 -0.23)"/><line class="cls-7" x1="88" y1="251.29" x2="88" y2="239.88"/><path class="cls-19" d="M288.64,230.6a2,2,0,1,1-3.91,0,2,2,0,0,1,3.91,0" transform="translate(-2.44 -0.23)"/><path class="cls-20" d="M288.64,230.6a2,2,0,1,1-3.91,0,2,2,0,0,1,3.91,0" transform="translate(-2.44 -0.23)"/><line class="cls-4" x1="282.65" y1="230.38" x2="282.43" y2="230.38"/><rect class="cls-5" x="282.65" y="224.68" width="0.48" height="11.4"/><rect class="cls-6" x="282.65" y="224.68" width="0.48" height="11.4"/><line class="cls-7" x1="282.73" y1="236.08" x2="282.73" y2="224.68"/></g><line class="cls-8" x1="78.19" y1="300.32" x2="78.19" y2="221.25"/><line class="cls-9" x1="75.45" y1="291.2" x2="78.19" y2="291.2"/><line class="cls-9" x1="75.45" y1="276" x2="78.19" y2="276"/><line class="cls-9" x1="75.45" y1="260.79" x2="78.19" y2="260.79"/><line class="cls-9" x1="75.45" y1="245.58" x2="78.19" y2="245.58"/><line class="cls-9" x1="75.45" y1="230.38" x2="78.19" y2="230.38"/><line class="cls-8" x1="78.19" y1="300.32" x2="307.26" y2="300.32"/><line class="cls-9" x1="87.94" y1="303.06" x2="87.94" y2="300.32"/><line class="cls-9" x1="139.22" y1="303.06" x2="139.22" y2="300.32"/><line class="cls-9" x1="190.51" y1="303.06" x2="190.51" y2="300.32"/><line class="cls-9" x1="241.79" y1="303.06" x2="241.79" y2="300.32"/><line class="cls-9" x1="293.07" y1="303.06" x2="293.07" y2="300.32"/><g class="cls-2"><text class="cls-10" transform="translate(85.49 311.56)">0</text><text class="cls-10" transform="translate(136.77 311.56)">5</text><text class="cls-10" transform="translate(185.61 311.56)">1</text><text class="cls-10" transform="translate(190.5 311.56)">0</text><text class="cls-10" transform="translate(236.88 311.56)">1</text><text class="cls-10" transform="translate(241.77 311.56)">5</text><text class="cls-10" transform="translate(288.15 311.56)">20</text></g><text class="cls-11" transform="translate(221.75 293.12)">memory (Gbytes)</text><text class="cls-12" transform="translate(0 293.31)">bsgenova</text><text class="cls-10" transform="translate(41.08 293.31)">-8 cores</text><text class="cls-12" transform="translate(0 278.2)">bsgenova</text><text class="cls-10" transform="translate(41.08 278.2)">-4 cores</text><text class="cls-10" transform="translate(1.45 263.32)">cgmaptools-bayes</text><text class="cls-10" transform="translate(0.97 248.21)">cgmaptools-binom</text><text class="cls-10" transform="translate(34.59 233.1)">BS-Snper</text><text class="cls-17" transform="translate(258.43 233.61)">18.99</text><text class="cls-17" transform="translate(96.52 248.52)">0.01</text><text class="cls-17" transform="translate(96.52 263.43)">0.01</text><text class="cls-17" transform="translate(108.24 278.34)">0.72</text><text class="cls-17" transform="translate(110.88 293.26)">1.39</text></svg>